<svg xmlns="http://www.w3.org/2000/svg" width="14" height="14" viewBox="0 0 14 14" fill="none">
<g opacity="0.65">
<path d="M12.7922 3.15937C12.0563 2.43281 11.0781 2.02969 10.0344 2.02813H10.0235C9.52189 2.02813 9.03283 2.12188 8.5672 2.30625C8.08439 2.49844 7.65001 2.78125 7.27814 3.14844L3.63908 6.74531C3.21876 7.16094 2.98908 7.71563 2.99064 8.30781C2.9922 8.89844 3.22501 9.45312 3.64689 9.87031C4.06876 10.2875 4.62814 10.5172 5.22501 10.5188H5.2297C5.82501 10.5188 6.38283 10.2906 6.80158 9.87813L9.99533 6.72188C10.1016 6.61719 10.1594 6.47813 10.1594 6.33125C10.1594 6.18281 10.1016 6.04375 9.99533 5.94063C9.89064 5.83594 9.75001 5.77969 9.60158 5.77969C9.45314 5.77969 9.31251 5.8375 9.20783 5.94063L6.01408 9.09688C5.80626 9.30313 5.52658 9.41562 5.22814 9.41562H5.22658C4.92501 9.41406 4.6422 9.29844 4.43283 9.09062C4.22189 8.88125 4.1047 8.60312 4.1047 8.30625C4.10314 8.01094 4.2172 7.73438 4.42658 7.52812L8.06564 3.92969C8.58439 3.41563 9.28126 3.13281 10.025 3.13281H10.0328C10.7797 3.13438 11.4813 3.42188 12.0078 3.94062C12.5328 4.46094 12.8235 5.15312 12.825 5.89062C12.8266 6.62813 12.5406 7.31875 12.0203 7.83281L8.15939 11.6531C7.38751 12.4125 6.35626 12.8313 5.25626 12.8313H5.24533C4.14064 12.8281 3.10314 12.4031 2.32501 11.6344C1.54689 10.8656 1.1172 9.84063 1.11564 8.74844C1.11251 7.65625 1.53751 6.63437 2.30939 5.87187L7.29376 0.94375C7.40001 0.839063 7.45783 0.7 7.45783 0.553125C7.45783 0.404688 7.40001 0.265625 7.29376 0.1625C7.18751 0.0578125 7.04689 0 6.89845 0C6.75001 0 6.60939 0.0578125 6.5047 0.160938L1.52033 5.09062C1.02345 5.58125 0.639077 6.15781 0.376577 6.80156C0.125014 7.42344 -0.00154821 8.07969 1.42919e-05 8.75156C0.00157679 9.425 0.131264 10.0813 0.387514 10.7016C0.651577 11.3453 1.03751 11.9219 1.53751 12.4156C2.03439 12.9078 2.61876 13.2906 3.27033 13.5531C3.89533 13.8047 4.55939 13.9328 5.2422 13.9359H5.25626C5.93439 13.9359 6.5922 13.8109 7.21408 13.5625C7.86408 13.3047 8.44689 12.925 8.94376 12.4328L12.8047 8.61406C13.175 8.24687 13.4625 7.81875 13.6563 7.33906C13.8438 6.875 13.9391 6.3875 13.9375 5.88594C13.9328 4.85469 13.5266 3.88594 12.7922 3.15937Z" fill="black"/>
</g>
</svg>