<svg width="30" height="30" viewBox="0 0 30 30" fill="none" xmlns="http://www.w3.org/2000/svg">
<path d="M27.3217 4.02192H21.6967V1.87906C21.6967 1.73174 21.5762 1.61121 21.4289 1.61121H19.5539C19.4065 1.61121 19.286 1.73174 19.286 1.87906V4.02192H10.7146V1.87906C10.7146 1.73174 10.594 1.61121 10.4467 1.61121H8.57171C8.42439 1.61121 8.30385 1.73174 8.30385 1.87906V4.02192H2.67885C2.08622 4.02192 1.60742 4.50072 1.60742 5.09335V27.3255C1.60742 27.9181 2.08622 28.3969 2.67885 28.3969H27.3217C27.9143 28.3969 28.3931 27.9181 28.3931 27.3255V5.09335C28.3931 4.50072 27.9143 4.02192 27.3217 4.02192ZM25.9824 25.9862H4.01814V13.263H25.9824V25.9862ZM4.01814 10.9862V6.43263H8.30385V8.03978C8.30385 8.1871 8.42439 8.30764 8.57171 8.30764H10.4467C10.594 8.30764 10.7146 8.1871 10.7146 8.03978V6.43263H19.286V8.03978C19.286 8.1871 19.4065 8.30764 19.5539 8.30764H21.4289C21.5762 8.30764 21.6967 8.1871 21.6967 8.03978V6.43263H25.9824V10.9862H4.01814Z" fill="#396A98"/>
</svg>
