<svg width="30" height="30" viewBox="0 0 30 30" fill="none" xmlns="http://www.w3.org/2000/svg">
<g clip-path="url(#clip0_1_1113)">
<path d="M25.7139 0H4.2853C3.69266 0 3.21387 0.478795 3.21387 1.07143V28.9286C3.21387 29.5212 3.69266 30 4.2853 30H25.7139C26.3065 30 26.7853 29.5212 26.7853 28.9286V1.07143C26.7853 0.478795 26.3065 0 25.7139 0ZM5.62458 2.41071H24.3746V9.375H5.62458V2.41071ZM24.3746 18.4821H5.62458V11.5179H24.3746V18.4821ZM24.3746 27.5893H5.62458V20.625H24.3746V27.5893ZM8.0353 5.89286C8.0353 6.24806 8.1764 6.58871 8.42756 6.83987C8.67873 7.09104 9.01938 7.23214 9.37458 7.23214C9.72978 7.23214 10.0704 7.09104 10.3216 6.83987C10.5728 6.58871 10.7139 6.24806 10.7139 5.89286C10.7139 5.53766 10.5728 5.197 10.3216 4.94584C10.0704 4.69467 9.72978 4.55357 9.37458 4.55357C9.01938 4.55357 8.67873 4.69467 8.42756 4.94584C8.1764 5.197 8.0353 5.53766 8.0353 5.89286ZM8.0353 15C8.0353 15.3552 8.1764 15.6959 8.42756 15.947C8.67873 16.1982 9.01938 16.3393 9.37458 16.3393C9.72978 16.3393 10.0704 16.1982 10.3216 15.947C10.5728 15.6959 10.7139 15.3552 10.7139 15C10.7139 14.6448 10.5728 14.3041 10.3216 14.053C10.0704 13.8018 9.72978 13.6607 9.37458 13.6607C9.01938 13.6607 8.67873 13.8018 8.42756 14.053C8.1764 14.3041 8.0353 14.6448 8.0353 15ZM8.0353 24.1071C8.0353 24.4623 8.1764 24.803 8.42756 25.0542C8.67873 25.3053 9.01938 25.4464 9.37458 25.4464C9.72978 25.4464 10.0704 25.3053 10.3216 25.0542C10.5728 24.803 10.7139 24.4623 10.7139 24.1071C10.7139 23.7519 10.5728 23.4113 10.3216 23.1601C10.0704 22.909 9.72978 22.7679 9.37458 22.7679C9.01938 22.7679 8.67873 22.909 8.42756 23.1601C8.1764 23.4113 8.0353 23.7519 8.0353 24.1071Z" fill="#396A98"/>
</g>
<defs>
<clipPath id="clip0_1_1113">
<rect width="30" height="30" fill="white"/>
</clipPath>
</defs>
</svg>
