<svg xmlns="http://www.w3.org/2000/svg" width="8" height="8" viewBox="0 0 8 8" fill="none">
<g clip-path="url(#clip0_36_6465)">
<path d="M6.78766 5.67897C6.56418 5.45531 6.30305 5.27276 6.01623 5.13969C6.4207 4.81201 6.67873 4.31201 6.67873 3.7513C6.67873 2.76201 5.85373 1.9504 4.86445 1.96558C3.89034 1.98076 3.10552 2.77451 3.10552 3.7513C3.10552 4.31201 3.36445 4.81201 3.76802 5.13969C3.48115 5.27266 3.22 5.45522 2.99659 5.67897C2.50909 6.16737 2.2323 6.81201 2.21445 7.49951C2.21421 7.50904 2.21588 7.51852 2.21936 7.52739C2.22285 7.53627 2.22807 7.54435 2.23473 7.55118C2.24138 7.558 2.24934 7.56342 2.25812 7.56712C2.26691 7.57082 2.27634 7.57273 2.28588 7.57272H2.78588C2.82427 7.57272 2.85641 7.54237 2.8573 7.50397C2.87427 6.98612 3.08409 6.5013 3.45284 6.13344C3.64154 5.94374 3.86598 5.79335 4.11319 5.69097C4.3604 5.58859 4.62545 5.53626 4.89302 5.53701C5.43677 5.53701 5.94838 5.74862 6.3332 6.13344C6.70106 6.5013 6.91088 6.98612 6.92873 7.50397C6.92963 7.54237 6.96177 7.57272 7.00016 7.57272H7.50016C7.50969 7.57273 7.51913 7.57082 7.52792 7.56712C7.5367 7.56342 7.54466 7.558 7.55131 7.55118C7.55797 7.54435 7.56319 7.53627 7.56667 7.52739C7.57016 7.51852 7.57183 7.50904 7.57159 7.49951C7.55373 6.81201 7.27695 6.16737 6.78766 5.67897ZM4.89302 4.89415C4.58766 4.89415 4.30016 4.7754 4.08498 4.55933C3.97699 4.45219 3.89169 4.3244 3.83417 4.18358C3.77664 4.04276 3.74807 3.89179 3.75016 3.73969C3.75284 3.44683 3.8698 3.1638 4.07427 2.95397C4.28855 2.73433 4.57516 2.61201 4.88141 2.60844C5.18409 2.60576 5.47784 2.72362 5.69391 2.93522C5.91534 3.15219 6.03677 3.44237 6.03677 3.7513C6.03677 4.05665 5.91802 4.34326 5.70195 4.55933C5.59594 4.66585 5.46987 4.75028 5.33101 4.80775C5.19216 4.86522 5.04329 4.89459 4.89302 4.89415ZM2.65641 3.98701C2.64838 3.90933 2.64391 3.83076 2.64391 3.7513C2.64391 3.60933 2.6573 3.47094 2.6823 3.33612C2.68855 3.30397 2.67159 3.27094 2.64213 3.25755C2.5207 3.20308 2.40909 3.12808 2.31266 3.03344C2.19904 2.92327 2.10962 2.79062 2.05013 2.64396C1.99064 2.4973 1.96237 2.33985 1.96713 2.18165C1.97516 1.89505 2.09034 1.62272 2.29123 1.41737C2.51177 1.19147 2.8082 1.06826 3.12338 1.07183C3.4082 1.07451 3.6832 1.18433 3.89123 1.37897C3.96177 1.44505 4.02248 1.51826 4.07338 1.59683C4.09123 1.62451 4.12605 1.63612 4.15641 1.6254C4.31356 1.57094 4.47963 1.53255 4.65016 1.51469C4.70016 1.50933 4.72873 1.45576 4.70641 1.41112C4.41623 0.837009 3.82338 0.440581 3.13766 0.429866C2.14748 0.414688 1.32248 1.2263 1.32248 2.21469C1.32248 2.7754 1.58052 3.2754 1.98498 3.60308C1.70105 3.73433 1.43945 3.91558 1.21266 4.14237C0.723376 4.63076 0.44659 5.2754 0.428733 5.9638C0.428495 5.97332 0.430166 5.98281 0.433649 5.99168C0.437132 6.00055 0.442356 6.00864 0.449012 6.01546C0.455669 6.02228 0.463624 6.02771 0.472408 6.03141C0.481193 6.03511 0.49063 6.03701 0.500162 6.03701H1.00105C1.03945 6.03701 1.07159 6.00665 1.07248 5.96826C1.08945 5.4504 1.29927 4.96558 1.66802 4.59772C1.93052 4.33522 2.25195 4.15308 2.60284 4.06469C2.63766 4.05576 2.66088 4.02272 2.65641 3.98701Z" fill="#AFAFAF"/>
</g>
<defs>
<clipPath id="clip0_36_6465">
<rect width="8" height="8" fill="white"/>
</clipPath>
</defs>
</svg>