<svg width="89" height="29" viewBox="0 0 89 29" fill="none" xmlns="http://www.w3.org/2000/svg">
<path d="M40.5685 10.7108C39.2065 11.9697 38.5254 13.7652 38.5254 16.0973C38.5254 18.4294 39.2065 20.2351 40.5685 21.5147C41.9306 22.7735 43.53 23.403 45.3668 23.403C47.2242 23.403 48.8339 22.7735 50.196 21.5147C51.5581 20.2351 52.2392 18.4294 52.2392 16.0973C52.2392 13.7652 51.5581 11.9697 50.196 10.7108C48.8339 9.4313 47.2242 8.79153 45.3668 8.79153C43.53 8.79153 41.9306 9.4313 40.5685 10.7108ZM34.0986 16.1282C34.0986 12.7024 35.2027 9.93693 37.411 7.83188C39.6192 5.72684 42.2712 4.67432 45.3668 4.67432C48.4831 4.67432 51.1453 5.72684 53.3536 7.83188C55.5619 9.93693 56.6659 12.7024 56.6659 16.1282C56.6659 19.5334 55.5619 22.2886 53.3536 24.3936C51.1453 26.4987 48.4831 27.5512 45.3668 27.5512C42.2712 27.5512 39.6192 26.4987 37.411 24.3936C35.2027 22.2886 34.0986 19.5334 34.0986 16.1282ZM57.4287 22.9387C57.4287 21.6385 57.8518 20.5963 58.6979 19.8121C59.5441 19.0278 60.6378 18.5325 61.9793 18.3261L65.7251 17.7689C66.4886 17.6657 66.8705 17.3046 66.8705 16.6854C66.8705 16.1076 66.6434 15.6329 66.1894 15.2614C65.756 14.89 65.1265 14.7042 64.3011 14.7042C63.4343 14.7042 62.7429 14.9415 62.227 15.4162C61.7317 15.8909 61.4531 16.4791 61.3912 17.1808L57.7383 16.4068C57.8827 15.0861 58.5328 13.92 59.6886 12.9088C60.8443 11.8975 62.3714 11.3919 64.2701 11.3919C66.5403 11.3919 68.2119 11.9387 69.2851 13.0326C70.3582 14.1057 70.8948 15.4885 70.8948 17.1808V24.6722C70.8948 25.5803 70.9567 26.3852 71.0806 27.0868H67.3039C67.2006 26.6328 67.1491 26.024 67.1491 25.2604C66.1791 26.7669 64.6829 27.5202 62.6604 27.5202C61.0919 27.5202 59.8227 27.0662 58.8527 26.1581C57.9034 25.2501 57.4287 24.1769 57.4287 22.9387ZM63.5272 24.4555C64.4972 24.4555 65.2917 24.1873 65.9108 23.6507C66.5505 23.0934 66.8705 22.1854 66.8705 20.9265V20.2454L63.4343 20.7717C62.1754 20.9574 61.5459 21.5972 61.5459 22.691C61.5459 23.1863 61.7213 23.6094 62.0722 23.9602C62.4231 24.2904 62.908 24.4555 63.5272 24.4555ZM88.1086 11.8562L82.0101 18.2642L88.2324 27.0868H83.1865L79.1621 21.267L77.4595 23.0625V27.0868H73.3423V4.67432H77.4595V17.5213L82.7221 11.8562H88.1086Z" fill="#396A98"/>
<path d="M0 0L22.7337 3.38587L27.087 27.087H0V0Z" fill="#396A98"/>
</svg>
