<svg width="30" height="31" viewBox="0 0 30 31" fill="none" xmlns="http://www.w3.org/2000/svg">
<path d="M28.6914 4.75127L24.6976 0.761253C24.2101 0.273751 23.5576 0 22.8676 0C22.1776 0 21.5251 0.270001 21.0376 0.761253L16.7363 5.05502C16.2488 5.54252 15.9751 6.19878 15.9751 6.88878C15.9751 7.58253 16.2451 8.23129 16.7363 8.72254L20.0963 12.0863C19.3309 13.8698 18.2311 15.4902 16.8563 16.8601C15.4801 18.2438 13.8713 19.3351 12.0863 20.1076L8.72629 16.7438C8.23879 16.2563 7.58628 15.9826 6.89628 15.9826C6.55594 15.9813 6.21877 16.048 5.90453 16.1787C5.5903 16.3094 5.30531 16.5016 5.06627 16.7438L0.761253 21.0376C0.273751 21.5251 0 22.1813 0 22.8714C0 23.5651 0.270001 24.2139 0.761253 24.7051L4.75127 28.6951C5.58377 29.5276 6.73128 30.0039 7.90878 30.0039C8.15254 30.0039 8.38879 29.9851 8.62879 29.9439C13.5938 29.1264 18.5213 26.4826 22.5001 22.5076C26.4751 18.5251 29.1151 13.5976 29.9401 8.62879C30.1764 7.21878 29.7039 5.76753 28.6914 4.75127ZM27.2814 8.18254C26.5501 12.6038 24.1726 17.0138 20.5913 20.5951C17.0101 24.1764 12.6038 26.5539 8.18254 27.2851C7.62753 27.3789 7.05753 27.1914 6.65253 26.7901L2.73376 22.8714L6.88878 18.7126L11.3813 23.2126L11.415 23.2464L12.2251 22.9464C14.681 22.0434 16.9113 20.6171 18.7613 18.7665C20.6113 16.9159 22.0367 14.6851 22.9389 12.2288L23.2389 11.4188L18.7088 6.89253L22.8638 2.73376L26.7826 6.65253C27.1876 7.05753 27.3751 7.62753 27.2814 8.18254Z" fill="#396A98"/>
</svg>
