<svg xmlns="http://www.w3.org/2000/svg" width="24" height="24" viewBox="0 0 24 24" fill="none">
  <circle cx="12" cy="12" r="12" fill="#A6DBFF"/>
  <mask id="mask0_1_11797" style="mask-type:luminance" maskUnits="userSpaceOnUse" x="0" y="0" width="24" height="24">
    <circle cx="12" cy="12" r="12" fill="white"/>
  </mask>
  <g mask="url(#mask0_1_11797)">
    <path d="M9.28516 7.26651C9.28516 7.26651 12.5176 6.72638 13.7096 5.41698C14.7869 4.22214 14.7707 2.88 14.7707 2.88" stroke="#2150B7" stroke-width="0.654702" stroke-linecap="round" stroke-linejoin="round"/>
    <path d="M12.664 3.37103C12.664 3.37103 13.3823 6.12094 11.7334 7.92138" stroke="#2150B7" stroke-width="0.654702" stroke-linecap="round" stroke-linejoin="round"/>
    <path d="M11.2107 4.68044C11.2107 4.68044 11.5209 5.67902 11.0801 6.61197" stroke="#2150B7" stroke-width="0.654702" stroke-linecap="round" stroke-linejoin="round"/>
    <path fill-rule="evenodd" clip-rule="evenodd" d="M13.725 22.2828C13.725 22.2828 16.1517 21.4101 15.4151 21.6243C14.9505 21.7594 14.4419 21.9259 14.0189 22.1095C13.072 22.5187 13.1373 23.7625 13.8393 24.1882C14.5413 24.6301 17.4472 24.6954 18.3939 23.517C20.2063 21.5038 17.137 16.0044 17.137 16.0044C17.137 16.0044 16.4024 15.3825 13.725 15.0386C11.0639 14.695 8.53346 16.3645 8.53346 16.3645C8.53346 16.3645 6.96604 17.5593 5.82325 21.471C5.00697 24.2535 8.3049 24.0245 8.3049 24.0245C8.3049 24.0245 9.33325 25.7266 11.3251 25.6775C13.7412 25.6285 15.0147 25.203 15.88 24.5155C15.88 24.5155 14.0568 24.4437 13.6522 24.0245C13.3385 23.6995 13.725 22.2828 13.725 22.2828Z" fill="#91D5FF"/>
    <path fill-rule="evenodd" clip-rule="evenodd" d="M17.9259 17.2453C17.9259 17.2453 18.8564 15.6249 18.0238 15.0357C17.1747 14.4301 17.5177 14.4954 17.3055 13.8245C16.881 12.7934 15.6566 12.5806 15.6566 12.5806C15.6566 12.5806 14.1873 12.4822 12.9629 12.5806C11.7385 12.6788 9.59981 13.579 9.59981 13.579C9.59981 13.579 6.95507 15.5267 9.22432 16.5252C10.3345 17.5234 11.0691 18.6038 11.0691 18.6038C11.0691 18.6038 15.6403 15.1176 17.3055 16.0503L17.9259 17.2453Z" fill="#43BCFF"/>
    <path fill-rule="evenodd" clip-rule="evenodd" d="M12.6759 9.42703C16.2675 10.2781 15.288 6.64455 15.288 6.64455C15.288 6.64455 15.0104 6.87353 5.18243 10.5891C4.08862 13.0443 9.65564 13.1261 9.65564 13.1261L9.47606 15.5812L11.0596 17.709C11.0596 17.709 12.2466 16.4574 13.6204 15.4017C14.4194 14.7878 15.4204 14.2413 15.9247 14.0427L14.439 9.49234" fill="#D7F0FF"/>
    <path fill-rule="evenodd" clip-rule="evenodd" d="M15.288 6.64455C15.288 6.64455 15.0104 6.87353 5.18243 10.5891C4.08862 13.0443 9.65564 13.1261 9.65564 13.1261L9.47606 15.5812L11.0401 17.7669C11.0401 17.7669 12.6297 16.0557 13.7402 15.2395C14.8508 14.4234 16.1288 14.0273 16.1288 14.0273L14.5216 9.42609C14.5216 9.42609 15.1094 8.91179 15.2061 8.62458C15.5461 7.61445 15.288 6.64455 15.288 6.64455Z" fill="white"/>
    <path d="M12.6759 9.42703C16.2675 10.2781 15.288 6.64455 15.288 6.64455C15.288 6.64455 15.0104 6.87353 5.18243 10.5891C4.08862 13.0443 9.65564 13.1261 9.65564 13.1261L9.47606 15.5812" stroke="#2150B7" stroke-width="0.5" stroke-linecap="round" stroke-linejoin="round"/>
    <path d="M16.3705 14.0099C14.2645 14.1083 10.9993 17.8072 10.9993 17.8072L9.28516 15.3848" stroke="#2150B7" stroke-width="0.5" stroke-linecap="round" stroke-linejoin="round"/>
    <path d="M9.59981 13.6826C9.59981 13.6826 6.95507 15.6303 9.22432 16.6287C10.5467 17.9056 11.0691 18.7074 11.0691 18.7074C11.0691 18.7074 15.7709 14.7465 17.7953 16.1543" stroke="#2150B7" stroke-width="0.5" stroke-linecap="round" stroke-linejoin="round"/>
    <path d="M8.50447 16.3014C8.50447 16.3014 6.82294 17.4637 5.79442 21.4081C5.09259 24.1087 8.27608 23.9616 8.27608 23.9616" stroke="#2150B7" stroke-width="0.5" stroke-linecap="round" stroke-linejoin="round"/>
    <path d="M6.83594 21.1145C6.83594 21.1145 8.22361 20.6562 8.77868 22.1457" stroke="#2150B7" stroke-width="0.5" stroke-linecap="round" stroke-linejoin="round"/>
    <path fill-rule="evenodd" clip-rule="evenodd" d="M10.1006 19.9023H12.9412L12.4843 24.6816H10.574L10.1006 19.9023Z" fill="white"/>
    <path fill-rule="evenodd" clip-rule="evenodd" d="M10.1006 19.9023H12.9412L12.4843 24.6816H10.574L10.1006 19.9023Z" stroke="#2150B7" stroke-width="0.5" stroke-linecap="round" stroke-linejoin="round"/>
    <path d="M8.94185 19.2476L8.79492 22.1611" stroke="#2150B7" stroke-width="0.5" stroke-linecap="round" stroke-linejoin="round"/>
    <path fill-rule="evenodd" clip-rule="evenodd" d="M6.83713 23.5469C6.83713 23.5469 6.77199 22.6631 7.60443 22.3357C8.92681 21.8283 10.2004 22.7611 10.2329 23.8578C10.2655 24.9707 9.20434 24.8236 8.81269 24.6272C8.42071 24.4471 8.30643 23.8906 7.81667 23.9887C7.34339 24.1033 6.88611 24.1033 6.83713 23.5469Z" fill="#E6F7FF"/>
    <path fill-rule="evenodd" clip-rule="evenodd" d="M6.83713 23.5469C6.83713 23.5469 6.77199 22.6631 7.60443 22.3357C8.92681 21.8283 10.2004 22.7611 10.2329 23.8578C10.2655 24.9707 9.20434 24.8236 8.81269 24.6272C8.42071 24.4471 8.30643 23.8906 7.81667 23.9887C7.34339 24.1033 6.88611 24.1033 6.83713 23.5469Z" stroke="#2150B7" stroke-width="0.5" stroke-linecap="round" stroke-linejoin="round"/>
    <path fill-rule="evenodd" clip-rule="evenodd" d="M10.1013 10.2454C10.1013 10.4254 9.95434 10.5727 9.77475 10.5727C9.59501 10.5727 9.44824 10.4254 9.44824 10.2454C9.44824 10.0652 9.59501 9.91805 9.77475 9.91805C9.95434 9.91805 10.1013 10.049 10.1013 10.2454Z" fill="#2150B7"/>
    <path d="M14.6289 9.50336L16.0704 13.9724" stroke="#2150B7" stroke-width="0.5" stroke-linecap="round" stroke-linejoin="round"/>
    <path d="M17.1932 16.1377C17.1932 16.1377 20.2624 21.539 18.4503 23.5524C17.5034 24.7307 14.5976 24.6489 13.8956 24.2233C13.1934 23.7814 13.1283 22.5538 14.075 22.1446C15.1851 21.6536 16.8342 21.31 16.8342 21.31" stroke="#2150B7" stroke-width="0.5" stroke-linecap="round" stroke-linejoin="round"/>
    <path d="M15.782 21.539L15.6514 19.7386" stroke="#2150B7" stroke-width="0.5" stroke-linecap="round" stroke-linejoin="round"/>
    <path d="M15.6514 12.7005C15.6514 12.7005 16.8923 12.9135 17.3004 13.9446C17.5125 14.5993 17.186 14.5502 18.0186 15.1557C18.8675 15.7613 17.9206 17.2671 17.9206 17.2671" stroke="#2150B7" stroke-width="0.5" stroke-linecap="round" stroke-linejoin="round"/>
    <path fill-rule="evenodd" clip-rule="evenodd" d="M13.4923 22.259L12.7576 21.8664C12.7576 21.8664 13.1333 22.6847 11.2883 22.7828C10.5374 22.8155 10.4557 24.1413 11.8434 24.4523C13.9169 24.8944 14.831 23.192 13.4923 22.259Z" fill="#E6F7FF"/>
    <path fill-rule="evenodd" clip-rule="evenodd" d="M13.4923 22.259L12.7576 21.8664C12.7576 21.8664 13.1333 22.6847 11.2883 22.7828C10.5374 22.8155 10.4557 24.1413 11.8434 24.4523C13.9169 24.8944 14.831 23.192 13.4923 22.259Z" stroke="#2150B7" stroke-width="0.5" stroke-linecap="round" stroke-linejoin="round"/>
  </g>
</svg>