<svg width="30" height="30" viewBox="0 0 30 30" fill="none" xmlns="http://www.w3.org/2000/svg">
<g clip-path="url(#clip0_1_1100)">
<path d="M28.8214 18.8118L26.6284 16.9368C26.7321 16.3007 26.7857 15.6511 26.7857 15.0016C26.7857 14.352 26.7321 13.7024 26.6284 13.0663L28.8214 11.1913C28.9869 11.0497 29.1052 10.8611 29.1609 10.6505C29.2165 10.44 29.2067 10.2175 29.1328 10.0127L29.1027 9.92566C28.4989 8.23825 27.5949 6.67399 26.4342 5.30847L26.3739 5.23816C26.2331 5.0726 26.0454 4.95358 25.8356 4.8968C25.6258 4.84002 25.4038 4.84813 25.1987 4.92008L22.4766 5.88771C21.4721 5.06405 20.3505 4.4145 19.1384 3.95914L18.6127 1.11316C18.5731 0.899015 18.4692 0.702007 18.3149 0.548308C18.1606 0.394609 17.9632 0.291496 17.7489 0.252668L17.6585 0.235927C15.9141 -0.0788051 14.0792 -0.0788051 12.3348 0.235927L12.2444 0.252668C12.0301 0.291496 11.8327 0.394609 11.6784 0.548308C11.5241 0.702007 11.4202 0.899015 11.3806 1.11316L10.8516 3.97253C9.64919 4.42799 8.52947 5.07719 7.53684 5.89441L4.79465 4.92008C4.58962 4.84756 4.36739 4.83915 4.15747 4.89597C3.94755 4.95279 3.75989 5.07214 3.61943 5.23816L3.55916 5.30847C2.39983 6.67496 1.49591 8.23895 0.890632 9.92566L0.860498 10.0127C0.709828 10.4312 0.833712 10.9 1.17188 11.1913L3.39175 13.0864C3.28795 13.7158 3.23773 14.3587 3.23773 14.9982C3.23773 15.6411 3.28795 16.2839 3.39175 16.91L1.17188 18.8051C1.00647 18.9467 0.888075 19.1353 0.832453 19.3459C0.776831 19.5564 0.786613 19.7789 0.860498 19.9837L0.890632 20.0707C1.49666 21.7582 2.39398 23.3152 3.55916 24.6879L3.61943 24.7582C3.76023 24.9238 3.9479 25.0428 4.15769 25.0996C4.36749 25.1564 4.58956 25.1483 4.79465 25.0763L7.53684 24.102C8.53461 24.9223 9.64956 25.5719 10.8516 26.0239L11.3806 28.8832C11.4202 29.0974 11.5241 29.2944 11.6784 29.4481C11.8327 29.6018 12.0301 29.7049 12.2444 29.7437L12.3348 29.7605C14.0953 30.0769 15.898 30.0769 17.6585 29.7605L17.7489 29.7437C17.9632 29.7049 18.1606 29.6018 18.3149 29.4481C18.4692 29.2944 18.5731 29.0974 18.6127 28.8832L19.1384 26.0373C20.35 25.5831 21.4779 24.9314 22.4766 24.1087L25.1987 25.0763C25.4037 25.1488 25.6259 25.1573 25.8358 25.1004C26.0458 25.0436 26.2334 24.9243 26.3739 24.7582L26.4342 24.6879C27.5993 23.3118 28.4967 21.7582 29.1027 20.0707L29.1328 19.9837C29.2835 19.5719 29.1596 19.1031 28.8214 18.8118ZM24.2511 13.4614C24.3348 13.967 24.3784 14.4859 24.3784 15.0049C24.3784 15.5239 24.3348 16.0428 24.2511 16.5484L24.0301 17.8911L26.5313 20.0306C26.1521 20.9041 25.6735 21.731 25.1049 22.4949L21.9978 21.3933L20.9464 22.2571C20.1462 22.9134 19.2556 23.429 18.2913 23.7906L17.0156 24.2694L16.4163 27.5172C15.4707 27.6243 14.516 27.6243 13.5703 27.5172L12.971 24.2627L11.7054 23.7772C10.7511 23.4156 9.86385 22.9 9.07032 22.2471L8.01898 21.3799L4.89175 22.4915C4.32255 21.7248 3.8471 20.8978 3.46541 20.0272L5.99331 17.8676L5.77568 16.5283C5.69532 16.0295 5.65179 15.5138 5.65179 15.0049C5.65179 14.4926 5.69197 13.9803 5.77568 13.4815L5.99331 12.1422L3.46541 9.98258C3.84376 9.10869 4.32255 8.28503 4.89175 7.51829L8.01898 8.6299L9.07032 7.76271C9.86385 7.10981 10.7511 6.59419 11.7054 6.23258L12.9743 5.75378L13.5737 2.49932C14.5145 2.39218 15.4755 2.39218 16.4197 2.49932L17.019 5.74709L18.2946 6.22588C19.2556 6.58749 20.1496 7.10311 20.9498 7.75936L22.0011 8.6232L25.1083 7.52164C25.6775 8.28838 26.1529 9.11539 26.5346 9.98593L24.0335 12.1254L24.2511 13.4614ZM15 8.77722C11.7455 8.77722 9.10715 11.4156 9.10715 14.6701C9.10715 17.9245 11.7455 20.5629 15 20.5629C18.2545 20.5629 20.8929 17.9245 20.8929 14.6701C20.8929 11.4156 18.2545 8.77722 15 8.77722ZM17.6518 17.3219C17.304 17.6707 16.8906 17.9473 16.4356 18.1357C15.9805 18.3242 15.4926 18.4208 15 18.4201C13.9989 18.4201 13.058 18.0283 12.3482 17.3219C11.9994 16.9741 11.7228 16.5607 11.5343 16.1056C11.3459 15.6505 11.2492 15.1627 11.25 14.6701C11.25 13.669 11.6417 12.7281 12.3482 12.0183C13.058 11.3085 13.9989 10.9201 15 10.9201C16.0011 10.9201 16.942 11.3085 17.6518 12.0183C18.0006 12.3661 18.2772 12.7794 18.4657 13.2345C18.6541 13.6896 18.7508 14.1775 18.75 14.6701C18.75 15.6712 18.3583 16.612 17.6518 17.3219Z" fill="#396A98"/>
</g>
<defs>
<clipPath id="clip0_1_1100">
<rect width="30" height="30" fill="white"/>
</clipPath>
</defs>
</svg>
